<?xml version="1.0" standalone="no"?>
<!DOCTYPE svg PUBLIC "-//W3C//DTD SVG 20010904//EN"
 "http://www.w3.org/TR/2001/REC-SVG-20010904/DTD/svg10.dtd">
<svg version="1.0" xmlns="http://www.w3.org/2000/svg"
 width="151.000000pt" height="151.000000pt" viewBox="0 0 151.000000 151.000000"
 preserveAspectRatio="xMidYMid meet">
<metadata>
Created by potrace 1.14, written by Peter Selinger 2001-2017
</metadata>
<g transform="translate(0.000000,151.000000) scale(0.100000,-0.100000)"
fill="#000000" stroke="none">
<path d="M958 1486 c-109 -45 -171 -117 -201 -235 l-13 -53 -14 74 c-17 96
-18 98 -47 98 -20 0 -24 -4 -20 -17 48 -144 82 -269 76 -271 -5 -2 -46 9 -91
24 -159 54 -291 30 -391 -69 -94 -93 -137 -206 -137 -357 0 -143 39 -268 138
-442 102 -180 184 -247 284 -234 28 4 77 18 109 32 75 31 134 31 210 -2 117
-49 185 -42 262 25 71 63 184 260 233 408 31 95 43 249 25 336 -31 144 -124
263 -242 307 -86 32 -160 31 -277 -5 -50 -15 -94 -26 -96 -24 -2 2 -6 20 -10
40 -6 36 -6 36 31 43 141 23 255 146 270 291 6 53 5 55 -18 55 -13 0 -50 -11
-81 -24z"/>
</g>
</svg>
